{
  "accessors": [
    {
      "bufferView": 2,
      "componentType": 5126,
      "count": 24,
      "max": [
        0.12303599715232849,
        0.073940001428127289,
        0.12303599715232849
      ],
      "min": [
        -0.12303599715232849,
        -0.068589001893997192,
        0.079775996506214142
      ],
      "type": "VEC3"
    },
    {
      "bufferView": 2,
      "byteOffset": 288,
      "componentType": 5126,
      "count": 24,
      "max": [
        1,
        1,
        1
      ],
      "min": [
        -1,
        -1,
        -1
      ],
      "type": "VEC3"
    },
    {
      "bufferView": 3,
      "componentType": 5126,
      "count": 24,
      "max": [
        1,
        0,
        1,
        1
      ],
      "min": [
        0,
        -1,
        -1,
        1
      ],
      "type": "VEC4"
    },
    {
      "bufferView": 1,
      "componentType": 5126,
      "count": 24,
      "max": [
        0.99147701263427734,
        0.95173799991607666
      ],
      "min": [
        0.015685999765992165,
        0.060028001666069031
      ],
      "type": "VEC2"
    },
    {
      "bufferView": 0,
      "componentType": 5125,
      "count": 36,
      "max": [
        23
      ],
      "min": [
        0
      ],
      "type": "SCALAR"
    },
    {
      "bufferView": 2,
      "byteOffset": 576,
      "componentType": 5126,
      "count": 1032,
      "max": [
        0.10606800019741058,
        0.083160996437072754,
        -0.1398870050907135
      ],
      "min": [
        -0.10606800019741058,
        -0.083160996437072754,
        -0.14892099797725677
      ],
      "type": "VEC3"
    },
    {
      "bufferView": 2,
      "byteOffset": 12960,
      "componentType": 5126,
      "count": 1032,
      "max": [
        1,
        1,
        1
      ],
      "min": [
        -1,
        -1,
        -1
      ],
      "type": "VEC3"
    },
    {
      "bufferView": 3,
      "byteOffset": 384,
      "componentType": 5126,
      "count": 1032,
      "max": [
        1,
        0.99999505281448364,
        0.010737679898738861,
        1
      ],
      "min": [
        -1,
        -0.99999505281448364,
        -0.010695459321141243,
        -1
      ],
      "type": "VEC4"
    },
    {
      "bufferView": 1,
      "byteOffset": 192,
      "componentType": 5126,
      "count": 1032,
      "max": [
        1,
        1
      ],
      "min": [
        0,
        0.0099999997764825821
      ],
      "type": "VEC2"
    },
    {
      "bufferView": 0,
      "byteOffset": 144,
      "componentType": 5125,
      "count": 3024,
      "max": [
        1031
      ],
      "min": [
        0
      ],
      "type": "SCALAR"
    },
    {
      "bufferView": 2,
      "byteOffset": 25344,
      "componentType": 5126,
      "count": 2298,
      "max": [
        0.057767998427152634,
        -0.068977996706962585,
        0.10826099663972855
      ],
      "min": [
        -0.089923001825809479,
        -0.080144003033638,
        0.094545997679233551
      ],
      "type": "VEC3"
    },
    {
      "bufferView": 2,
      "byteOffset": 52920,
      "componentType": 5126,
      "count": 2298,
      "max": [
        0.99976235628128052,
        1,
        0.99976235628128052
      ],
      "min": [
        -0.99976235628128052,
        -1,
        -0.99976235628128052
      ],
      "type": "VEC3"
    },
    {
      "bufferView": 3,
      "byteOffset": 16896,
      "componentType": 5126,
      "count": 2298,
      "max": [
        0.99976241588592529,
        0.096296295523643494,
        0.99976241588592529,
        1
      ],
      "min": [
        -0.99976241588592529,
        -0.97621250152587891,
        -0.99976241588592529,
        -1
      ],
      "type": "VEC4"
    },
    {
      "bufferView": 1,
      "byteOffset": 8448,
      "componentType": 5126,
      "count": 2298,
      "max": [
        1,
        1
      ],
      "min": [
        0,
        -0
      ],
      "type": "VEC2"
    },
    {
      "bufferView": 0,
      "byteOffset": 12240,
      "componentType": 5125,
      "count": 5472,
      "max": [
        2297
      ],
      "min": [
        0
      ],
      "type": "SCALAR"
    },
    {
      "bufferView": 2,
      "byteOffset": 80496,
      "componentType": 5126,
      "count": 1984,
      "max": [
        0.092615000903606415,
        -0.06733500212430954,
        0.095293998718261719
      ],
      "min": [
        0.089977003633975983,
        -0.06997399777173996,
        0.092656001448631287
      ],
      "type": "VEC3"
    },
    {
      "bufferView": 2,
      "byteOffset": 104304,
      "componentType": 5126,
      "count": 1984,
      "max": [
        0.99043756723403931,
        0.99043756723403931,
        0.99515283107757568
      ],
      "min": [
        -0.99044722318649292,
        -0.99044722318649292,
        -0.99514532089233398
      ],
      "type": "VEC3"
    },
    {
      "bufferView": 3,
      "byteOffset": 53664,
      "componentType": 5126,
      "count": 1984,
      "max": [
        0.99583256244659424,
        0.99523282051086426,
        0.0051939343102276325,
        1
      ],
      "min": [
        -0.99583256244659424,
        -0.99522966146469116,
        -0.0051943548023700714,
        1
      ],
      "type": "VEC4"
    },
    {
      "bufferView": 1,
      "byteOffset": 26832,
      "componentType": 5126,
      "count": 1984,
      "max": [
        1,
        1
      ],
      "min": [
        0,
        0
      ],
      "type": "VEC2"
    },
    {
      "bufferView": 0,
      "byteOffset": 34128,
      "componentType": 5125,
      "count": 2880,
      "max": [
        1983
      ],
      "min": [
        0
      ],
      "type": "SCALAR"
    },
    {
      "bufferView": 2,
      "byteOffset": 128112,
      "componentType": 5126,
      "count": 130,
      "max": [
        -0.035673998296260834,
        -0.068828001618385315,
        0.099076002836227417
      ],
      "min": [
        -0.041547000408172607,
        -0.074700996279716492,
        0.093203000724315643
      ],
      "type": "VEC3"
    },
    {
      "bufferView": 2,
      "byteOffset": 129672,
      "componentType": 5126,
      "count": 130,
      "max": [
        0.96977674961090088,
        1,
        0.96977674961090088
      ],
      "min": [
        -0.96977674961090088,
        -1,
        -0.96977674961090088
      ],
      "type": "VEC3"
    },
    {
      "bufferView": 3,
      "byteOffset": 85408,
      "componentType": 5126,
      "count": 130,
      "max": [
        1,
        0.023490225896239281,
        0.99998867511749268,
        1
      ],
      "min": [
        -0.9997107982635498,
        -0.023533063009381294,
        -0.9999886155128479,
        -1
      ],
      "type": "VEC4"
    },
    {
      "bufferView": 1,
      "byteOffset": 42704,
      "componentType": 5126,
      "count": 130,
      "max": [
        1,
        1
      ],
      "min": [
        0,
        0.0099999997764825821
      ],
      "type": "VEC2"
    },
    {
      "bufferView": 0,
      "byteOffset": 45648,
      "componentType": 5125,
      "count": 372,
      "max": [
        129
      ],
      "min": [
        0
      ],
      "type": "SCALAR"
    },
    {
      "bufferView": 2,
      "byteOffset": 131232,
      "componentType": 5126,
      "count": 2378,
      "max": [
        0.14239099621772766,
        0.061673000454902649,
        0.14757800102233887
      ],
      "min": [
        -0.14239099621772766,
        -0.066417999565601349,
        0.012865999713540077
      ],
      "type": "VEC3"
    },
    {
      "bufferView": 2,
      "byteOffset": 159768,
      "componentType": 5126,
      "count": 2378,
      "max": [
        1,
        1,
        1
      ],
      "min": [
        -1,
        -1,
        -1
      ],
      "type": "VEC3"
    },
    {
      "bufferView": 3,
      "byteOffset": 87488,
      "componentType": 5126,
      "count": 2378,
      "max": [
        1,
        0.87851232290267944,
        1,
        1
      ],
      "min": [
        -1,
        -0.90579319000244141,
        -0.98275816440582275,
        -1
      ],
      "type": "VEC4"
    },
    {
      "bufferView": 1,
      "byteOffset": 43744,
      "componentType": 5126,
      "count": 2378,
      "max": [
        0.875,
        1
      ],
      "min": [
        0,
        0
      ],
      "type": "VEC2"
    },
    {
      "bufferView": 0,
      "byteOffset": 47136,
      "componentType": 5125,
      "count": 8586,
      "max": [
        2377
      ],
      "min": [
        0
      ],
      "type": "SCALAR"
    },
    {
      "bufferView": 2,
      "byteOffset": 188304,
      "componentType": 5126,
      "count": 408,
      "max": [
        0.1083419993519783,
        -0.070786997675895691,
        0.1100739985704422
      ],
      "min": [
        0.1047540009021759,
        -0.073778003454208374,
        0.095951996743679047
      ],
      "type": "VEC3"
    },
    {
      "bufferView": 2,
      "byteOffset": 193200,
      "componentType": 5126,
      "count": 408,
      "max": [
        1,
        1,
        0.99518656730651855
      ],
      "min": [
        -1,
        -1,
        -0.99518656730651855
      ],
      "type": "VEC3"
    },
    {
      "bufferView": 3,
      "byteOffset": 125536,
      "componentType": 5126,
      "count": 408,
      "max": [
        1,
        0,
        0.92576980590820312,
        1
      ],
      "min": [
        -1,
        -0.37822127342224121,
        0,
        1
      ],
      "type": "VEC4"
    },
    {
      "bufferView": 1,
      "byteOffset": 62768,
      "componentType": 5126,
      "count": 408,
      "max": [
        0.875,
        1
      ],
      "min": [
        0,
        0
      ],
      "type": "VEC2"
    },
    {
      "bufferView": 0,
      "byteOffset": 81480,
      "componentType": 5125,
      "count": 804,
      "max": [
        407
      ],
      "min": [
        0
      ],
      "type": "SCALAR"
    },
    {
      "bufferView": 2,
      "byteOffset": 198096,
      "componentType": 5126,
      "count": 4,
      "max": [
        0.12160100042819977,
        -0.068187996745109558,
        0.079037003219127655
      ],
      "min": [
        -0.12160100042819977,
        -0.068187996745109558,
        -0.12257499992847443
      ],
      "type": "VEC3"
    },
    {
      "bufferView": 2,
      "byteOffset": 198144,
      "componentType": 5126,
      "count": 4,
      "max": [
        0,
        -1,
        0
      ],
      "min": [
        0,
        -1,
        0
      ],
      "type": "VEC3"
    },
    {
      "bufferView": 3,
      "byteOffset": 132064,
      "componentType": 5126,
      "count": 4,
      "max": [
        1,
        0,
        0,
        1
      ],
      "min": [
        1,
        0,
        0,
        1
      ],
      "type": "VEC4"
    },
    {
      "bufferView": 1,
      "byteOffset": 66032,
      "componentType": 5126,
      "count": 4,
      "max": [
        1,
        1
      ],
      "min": [
        0,
        0
      ],
      "type": "VEC2"
    },
    {
      "bufferView": 0,
      "byteOffset": 84696,
      "componentType": 5125,
      "count": 6,
      "max": [
        3
      ],
      "min": [
        0
      ],
      "type": "SCALAR"
    },
    {
      "bufferView": 2,
      "byteOffset": 198192,
      "componentType": 5126,
      "count": 1344,
      "max": [
        0.14000000059604645,
        0.090000003576278687,
        0.14000000059604645
      ],
      "min": [
        -0.14000000059604645,
        -0.090000003576278687,
        -0.14000000059604645
      ],
      "type": "VEC3"
    },
    {
      "bufferView": 2,
      "byteOffset": 214320,
      "componentType": 5126,
      "count": 1344,
      "max": [
        1,
        0.99891704320907593,
        1
      ],
      "min": [
        -1,
        -0.99891704320907593,
        -1
      ],
      "type": "VEC3"
    },
    {
      "bufferView": 3,
      "byteOffset": 132128,
      "componentType": 5126,
      "count": 1344,
      "max": [
        1,
        1,
        1,
        1
      ],
      "min": [
        -1,
        -1,
        -1,
        1
      ],
      "type": "VEC4"
    },
    {
      "bufferView": 1,
      "byteOffset": 66064,
      "componentType": 5126,
      "count": 1344,
      "max": [
        0.9985319972038269,
        0.99909400939941406
      ],
      "min": [
        0.00090599997201934457,
        0.00090599997201934457
      ],
      "type": "VEC2"
    },
    {
      "bufferView": 0,
      "byteOffset": 84720,
      "componentType": 5125,
      "count": 2004,
      "max": [
        1343
      ],
      "min": [
        0
      ],
      "type": "SCALAR"
    },
    {
      "bufferView": 2,
      "byteOffset": 230448,
      "componentType": 5126,
      "count": 2854,
      "max": [
        0.14253699779510498,
        0.09348200261592865,
        0.14974899590015411
      ],
      "min": [
        -0.14253699779510498,
        -0.09348200261592865,
        -0.14253699779510498
      ],
      "type": "VEC3"
    },
    {
      "bufferView": 2,
      "byteOffset": 264696,
      "componentType": 5126,
      "count": 2854,
      "max": [
        1,
        1,
        1
      ],
      "min": [
        -1,
        -1,
        -1
      ],
      "type": "VEC3"
    },
    {
      "bufferView": 3,
      "byteOffset": 153632,
      "componentType": 5126,
      "count": 2854,
      "max": [
        1,
        0.99999517202377319,
        1,
        1
      ],
      "min": [
        -1,
        -0.77044904232025146,
        -1,
        -1
      ],
      "type": "VEC4"
    },
    {
      "bufferView": 1,
      "byteOffset": 76816,
      "componentType": 5126,
      "count": 2854,
      "max": [
        1,
        1
      ],
      "min": [
        0,
        0
      ],
      "type": "VEC2"
    },
    {
      "bufferView": 0,
      "byteOffset": 92736,
      "componentType": 5125,
      "count": 7608,
      "max": [
        2853
      ],
      "min": [
        0
      ],
      "type": "SCALAR"
    }
  ],
  "asset": {
    "extras": {
      "author": "Victor.Hernandez (https://sketchfab.com/Victor.Hernandez)",
      "license": "CC-BY-4.0 (http://creativecommons.org/licenses/by/4.0/)",
      "source": "https://sketchfab.com/3d-models/guitar-amplifier-986c95d1d84e44929f6cebfc170fe71b",
      "title": "Guitar amplifier"
    },
    "generator": "Sketchfab-4.97.1",
    "version": "2.0"
  },
  "bufferViews": [
    {
      "buffer": 0,
      "byteLength": 123168,
      "byteOffset": 0,
      "name": "floatBufferViews",
      "target": 34963
    },
    {
      "buffer": 0,
      "byteLength": 99648,
      "byteOffset": 123168,
      "byteStride": 8,
      "name": "floatBufferViews",
      "target": 34962
    },
    {
      "buffer": 0,
      "byteLength": 298944,
      "byteOffset": 222816,
      "byteStride": 12,
      "name": "floatBufferViews",
      "target": 34962
    },
    {
      "buffer": 0,
      "byteLength": 199296,
      "byteOffset": 521760,
      "byteStride": 16,
      "name": "floatBufferViews",
      "target": 34962
    }
  ],
  "buffers": [
    {
      "byteLength": 721056,
      "uri": "scene.bin"
    }
  ],
  "images": [
    {
      "uri": "textures/Console_baseColor.png"
    }
  ],
  "materials": [
    {
      "doubleSided": true,
      "emissiveFactor": [
        0,
        0,
        0
      ],
      "name": "Base",
      "pbrMetallicRoughness": {
        "baseColorFactor": [
          0.002591,
          0.002591,
          0.002591,
          1
        ],
        "metallicFactor": 0,
        "roughnessFactor": 0.80635083269999996
      }
    },
    {
      "doubleSided": true,
      "emissiveFactor": [
        0,
        0,
        0
      ],
      "name": "Console",
      "pbrMetallicRoughness": {
        "baseColorFactor": [
          1,
          1,
          1,
          1
        ],
        "baseColorTexture": {
          "index": 0,
          "texCoord": 0
        },
        "metallicFactor": 0,
        "roughnessFactor": 0.80635083269999996
      }
    },
    {
      "doubleSided": true,
      "emissiveFactor": [
        0,
        0,
        0
      ],
      "name": "Material.001",
      "pbrMetallicRoughness": {
        "baseColorFactor": [
          0.0046560000000000004,
          0.0046560000000000004,
          0.0046560000000000004,
          1
        ],
        "metallicFactor": 0,
        "roughnessFactor": 0.80635083269999996
      }
    },
    {
      "doubleSided": true,
      "emissiveFactor": [
        0,
        0,
        0
      ],
      "name": "Material.002",
      "pbrMetallicRoughness": {
        "baseColorFactor": [
          0,
          0,
          0,
          1
        ],
        "metallicFactor": 0,
        "roughnessFactor": 0.52807778760000001
      }
    },
    {
      "doubleSided": true,
      "emissiveFactor": [
        1,
        0,
        0
      ],
      "name": "Material.003",
      "pbrMetallicRoughness": {
        "baseColorFactor": [
          0.2307903925,
          0,
          0,
          1
        ],
        "metallicFactor": 0,
        "roughnessFactor": 0.76285846130000001
      }
    },
    {
      "doubleSided": true,
      "emissiveFactor": [
        0,
        0,
        0
      ],
      "name": "Material.004",
      "pbrMetallicRoughness": {
        "baseColorFactor": [
          0.390629,
          0.390629,
          0.390629,
          1
        ],
        "metallicFactor": 0,
        "roughnessFactor": 0.80635083269999996
      }
    },
    {
      "doubleSided": true,
      "emissiveFactor": [
        0,
        0,
        0
      ],
      "name": "Material.005",
      "pbrMetallicRoughness": {
        "baseColorFactor": [
          0.001369,
          0.001369,
          0.001369,
          1
        ],
        "metallicFactor": 0,
        "roughnessFactor": 0.51906271709999996
      }
    },
    {
      "doubleSided": true,
      "emissiveFactor": [
        0,
        0,
        0
      ],
      "name": "Material.006",
      "pbrMetallicRoughness": {
        "baseColorFactor": [
          1,
          1,
          1,
          1
        ],
        "metallicFactor": 0,
        "roughnessFactor": 0.80635083269999996
      }
    },
    {
      "alphaMode": "BLEND",
      "doubleSided": true,
      "emissiveFactor": [
        0,
        0,
        0
      ],
      "name": "Tela",
      "pbrMetallicRoughness": {
        "baseColorFactor": [
          0.0039280000000000001,
          0.0039280000000000001,
          0.0039280000000000001,
          0.98931250569999996
        ],
        "metallicFactor": 0,
        "roughnessFactor": 0.65787867779999998
      }
    },
    {
      "doubleSided": true,
      "emissiveFactor": [
        0,
        0,
        0
      ],
      "name": "skin",
      "pbrMetallicRoughness": {
        "baseColorFactor": [
          0.0032810000000000001,
          0.0032810000000000001,
          0.0032810000000000001,
          1
        ],
        "metallicFactor": 0,
        "roughnessFactor": 0.67356288759999994
      }
    }
  ],
  "meshes": [
    {
      "primitives": [
        {
          "attributes": {
            "NORMAL": 1,
            "POSITION": 0,
            "TANGENT": 2,
            "TEXCOORD_0": 3
          },
          "indices": 4,
          "material": 1,
          "mode": 4
        }
      ]
    },
    {
      "primitives": [
        {
          "attributes": {
            "NORMAL": 6,
            "POSITION": 5,
            "TANGENT": 7,
            "TEXCOORD_0": 8
          },
          "indices": 9,
          "material": 2,
          "mode": 4
        }
      ]
    },
    {
      "primitives": [
        {
          "attributes": {
            "NORMAL": 11,
            "POSITION": 10,
            "TANGENT": 12,
            "TEXCOORD_0": 13
          },
          "indices": 14,
          "material": 3,
          "mode": 4
        }
      ]
    },
    {
      "primitives": [
        {
          "attributes": {
            "NORMAL": 16,
            "POSITION": 15,
            "TANGENT": 17,
            "TEXCOORD_0": 18
          },
          "indices": 19,
          "material": 4,
          "mode": 4
        }
      ]
    },
    {
      "primitives": [
        {
          "attributes": {
            "NORMAL": 21,
            "POSITION": 20,
            "TANGENT": 22,
            "TEXCOORD_0": 23
          },
          "indices": 24,
          "material": 5,
          "mode": 4
        }
      ]
    },
    {
      "primitives": [
        {
          "attributes": {
            "NORMAL": 26,
            "POSITION": 25,
            "TANGENT": 27,
            "TEXCOORD_0": 28
          },
          "indices": 29,
          "material": 6,
          "mode": 4
        }
      ]
    },
    {
      "primitives": [
        {
          "attributes": {
            "NORMAL": 31,
            "POSITION": 30,
            "TANGENT": 32,
            "TEXCOORD_0": 33
          },
          "indices": 34,
          "material": 7,
          "mode": 4
        }
      ]
    },
    {
      "primitives": [
        {
          "attributes": {
            "NORMAL": 36,
            "POSITION": 35,
            "TANGENT": 37,
            "TEXCOORD_0": 38
          },
          "indices": 39,
          "material": 8,
          "mode": 4
        }
      ]
    },
    {
      "primitives": [
        {
          "attributes": {
            "NORMAL": 41,
            "POSITION": 40,
            "TANGENT": 42,
            "TEXCOORD_0": 43
          },
          "indices": 44,
          "material": 9,
          "mode": 4
        }
      ]
    },
    {
      "primitives": [
        {
          "attributes": {
            "NORMAL": 46,
            "POSITION": 45,
            "TANGENT": 47,
            "TEXCOORD_0": 48
          },
          "indices": 49,
          "material": 0,
          "mode": 4
        }
      ]
    }
  ],
  "nodes": [
    {
      "children": [
        1
      ],
      "name": "RootNode (gltf orientation matrix)",
      "rotation": [
        -0.70710678118654746,
        -0,
        -0,
        0.70710678118654757
      ]
    },
    {
      "children": [
        2
      ],
      "name": "RootNode (model correction matrix)"
    },
    {
      "children": [
        3,
        4,
        5,
        6,
        7,
        8,
        9,
        10,
        11,
        12
      ],
      "name": "Yamaha amp.obj.cleaner.materialmerger.gles"
    },
    {
      "mesh": 0,
      "name": ""
    },
    {
      "mesh": 1,
      "name": ""
    },
    {
      "mesh": 2,
      "name": ""
    },
    {
      "mesh": 3,
      "name": ""
    },
    {
      "mesh": 4,
      "name": ""
    },
    {
      "mesh": 5,
      "name": ""
    },
    {
      "mesh": 6,
      "name": ""
    },
    {
      "mesh": 7,
      "name": ""
    },
    {
      "mesh": 8,
      "name": ""
    },
    {
      "mesh": 9,
      "name": ""
    }
  ],
  "samplers": [
    {
      "magFilter": 9729,
      "minFilter": 9987,
      "wrapS": 10497,
      "wrapT": 10497
    }
  ],
  "scene": 0,
  "scenes": [
    {
      "name": "amplifier",
      "nodes": [
        0
      ]
    }
  ],
  "textures": [
    {
      "sampler": 0,
      "source": 0
    }
  ]
}

